<?xml version="1.0" encoding="UTF-8" standalone="no"?>
<svg
   xmlns:dc="http://purl.org/dc/elements/1.1/"
   xmlns:cc="http://creativecommons.org/ns#"
   xmlns:rdf="http://www.w3.org/1999/02/22-rdf-syntax-ns#"
   xmlns:svg="http://www.w3.org/2000/svg"
   xmlns="http://www.w3.org/2000/svg"
   xmlns:sodipodi="http://sodipodi.sourceforge.net/DTD/sodipodi-0.dtd"
   xmlns:inkscape="http://www.inkscape.org/namespaces/inkscape"
   height="512pt"
   viewBox="0 -39 512 512"
   width="512pt"
   version="1.1"
   id="svg6"
   sodipodi:docname="complete.svg"
   inkscape:version="0.92.4 (5da689c313, 2019-01-14)">
  <metadata
     id="metadata12">
    <rdf:RDF>
      <cc:Work
         rdf:about="">
        <dc:format>image/svg+xml</dc:format>
        <dc:type
           rdf:resource="http://purl.org/dc/dcmitype/StillImage" />
        <dc:title></dc:title>
      </cc:Work>
    </rdf:RDF>
  </metadata>
  <defs
     id="defs10" />
  <sodipodi:namedview
     pagecolor="#ffffff"
     bordercolor="#666666"
     borderopacity="1"
     objecttolerance="10"
     gridtolerance="10"
     guidetolerance="10"
     inkscape:pageopacity="0"
     inkscape:pageshadow="2"
     inkscape:window-width="1280"
     inkscape:window-height="971"
     id="namedview8"
     showgrid="false"
     inkscape:zoom="0.69140625"
     inkscape:cx="263.52539"
     inkscape:cy="409.10391"
     inkscape:window-x="-8"
     inkscape:window-y="-8"
     inkscape:window-maximized="1"
     inkscape:current-layer="svg6" />
  <path
	 fill="white"
     id="path4"
     d="m 257.45148,473.53028 c -68.3789,0 -132.66797,-26.62891 -181.019529,-74.98047 C 28.080387,350.19825 1.4514802,285.90918 1.4514802,217.53027 c 0,-68.3789 26.6289068,-132.667973 74.9804708,-181.019531 48.351559,-48.351564 112.640629,-74.980471 181.019529,-74.980471 68.37891,0 132.66798,26.628907 181.01954,74.980471 48.35156,48.351558 74.98047,112.640631 74.98047,181.019531 0,68.37891 -26.62891,132.66798 -74.98047,181.01954 -48.35156,48.35156 -112.64063,74.98047 -181.01954,74.98047 z m 0,-472.0000112 c -119.10156,0 -215.999999,96.8984402 -215.999999,216.0000012 0,119.10157 96.898439,216.00001 215.999999,216.00001 119.10157,0 216.00001,-96.89844 216.00001,-216.00001 0,-119.101561 -96.89844,-216.0000012 -216.00001,-216.0000012 z M 222.6811,277.3205 144.27875,202.68769 116.70063,231.66035 224.92719,334.68378 391.3686,149.36347 361.61078,122.63691 Z" />
</svg>
